<!-- Generator: Adobe Illustrator 21.0.2, SVG Export Plug-In  -->
<svg version="1.1"
	 xmlns="http://www.w3.org/2000/svg" xmlns:xlink="http://www.w3.org/1999/xlink" xmlns:a="http://ns.adobe.com/AdobeSVGViewerExtensions/3.0/"
	 x="0px" y="0px" width="200px" height="100.001px" viewBox="0 0 200 100.001" style="enable-background:new 0 0 200 100.001;"
	 xml:space="preserve">
<style type="text/css">
	.st0{fill:#FFFFFF;}
	.st1{fill:#8ACCC6;}
	.st2{fill:#857761;}
</style>
<defs>
</defs>
<g>
	<polygon class="st0" points="99.999,0 0,50 99.999,100.001 200,50 	"/>
</g>
<g>
	<path class="st1" d="M95.328,74.481c0,0.159,0.014,0.463,0.043,0.665h-0.072c-0.058-0.217-0.145-0.448-0.26-0.651l-3.776-6.163
		h-0.897v7.957h0.752v-6.178c0-0.202-0.015-0.506-0.029-0.651h0.072c0.058,0.217,0.173,0.492,0.289,0.665l3.776,6.163h0.854v-7.957
		h-0.752V74.481z M104.036,76.289h0.839v-7.957h-0.839V76.289z M82.944,75.566v-2.937h3.472V71.92h-3.472v-2.865h3.631v-0.723
		h-4.471v7.957h4.558l-0.087-0.723H82.944z M116.767,72.137l-1.287-0.492c-0.839-0.318-1.114-0.694-1.114-1.273
		c0-0.984,0.622-1.461,1.664-1.461c0.42,0,0.984,0.072,1.794,0.275l0.159-0.752c-0.825-0.188-1.403-0.246-1.91-0.246
		c-1.62,0-2.561,0.882-2.561,2.257c0,0.825,0.448,1.476,1.649,1.924l1.288,0.477c0.824,0.304,1.114,0.709,1.114,1.432
		c0,0.853-0.521,1.432-1.577,1.432c-0.521,0-1.027-0.087-2.185-0.448l-0.203,0.752c1.157,0.333,1.721,0.419,2.344,0.419
		c1.461,0,2.459-0.738,2.459-2.228C118.402,73.15,117.896,72.571,116.767,72.137z M109.1,76.216c0,0.709-0.202,0.969-1.273,1.317
		l0.231,0.767c1.519-0.521,1.866-0.969,1.881-2.083v-7.885H109.1V76.216z M83.645,31.628c0.13,0,0.275-0.014,0.376-0.029
		l0.029-0.738c-0.116,0.014-0.188,0.014-0.275,0.014c-0.202,0-0.347-0.087-0.535-0.405l-2.055-3.545l2.966-3.212v-0.072h-0.926
		l-3.154,3.487c-0.174,0.188-0.391,0.463-0.55,0.723h-0.043v-4.21h-0.825v7.957h0.825v-2.778l1.157-1.259l1.938,3.328
		C82.878,31.411,83.066,31.628,83.645,31.628z M121.781,30.876h-3.631v-2.937h3.472V27.23h-3.472v-2.865h3.631v-0.723h-4.471v7.957
		h4.558L121.781,30.876z M92.976,27.62c0-2.995-1.287-4.123-3.183-4.123c-1.881,0-3.197,1.128-3.197,4.123
		c0,2.966,1.273,4.123,3.197,4.123C91.718,31.744,92.976,30.557,92.976,27.62z M89.794,31.035c-1.331,0-2.329-0.694-2.329-3.414
		c0-2.59,0.911-3.414,2.329-3.414c1.418,0,2.315,0.825,2.315,3.414C92.108,30.355,91.082,31.035,89.794,31.035z M96.593,31.599
		h0.839v-3.602h3.472v-0.709h-3.472v-2.923h3.617v-0.723h-4.456V31.599z M108.731,27.288h-3.472v-2.923h3.617v-0.723h-4.456v7.957
		h0.839v-3.602h3.472V27.288z M112.247,31.599h0.839v-7.957h-0.839V31.599z"/>
	<path class="st2" d="M78.97,36.857c-4.355,0-7.886,3.531-7.886,7.887v18.402h5.258v-5.258h5.257v5.258h5.258l0.001-18.402
		C86.857,40.388,83.326,36.857,78.97,36.857z M81.598,52.631h-5.257v-7.887h0c0-1.451,1.177-2.629,2.629-2.629
		c1.447,0,2.621,1.17,2.629,2.614V52.631z M60.569,36.857l-7.886,0.001l-0.001-0.001v26.288l0.001-0.001v0.001l7.886,0.001
		c4.355,0,7.886-3.531,7.886-7.887h-0.003l0.003-0.001V44.742l-0.001-0.001h0.001C68.456,40.387,64.924,36.857,60.569,36.857z
		 M63.198,55.259c0,1.451-1.177,2.629-2.629,2.629h-2.63V42.114h2.63c1.451,0,2.629,1.177,2.629,2.627V55.259z M97.371,36.857
		c-4.355,0-7.886,3.531-7.886,7.887v18.402h5.257V44.744h0c0-1.451,1.177-2.629,2.629-2.629c1.447,0,2.621,1.17,2.629,2.614v18.417
		h5.258l0.001-18.402C105.259,40.388,101.727,36.857,97.371,36.857z M107.887,63.146l5.258,0.001V36.858l-5.258-0.001V63.146z
		 M147.32,42.117v-5.258l-13.144-0.001v26.289l13.144,0.001v-5.258h-7.886v-5.257h7.886v-5.258h-7.886v-5.257H147.32z
		 M131.546,47.373l-0.001-2.629c0-4.355-3.531-7.886-7.886-7.886c-4.355,0-7.886,3.531-7.886,7.887v10.514
		c0,4.356,3.531,7.886,7.886,7.886c4.355,0,7.886-3.531,7.886-7.886h0.001l-0.001-2.629l-5.257-0.001v2.629h0
		c0,1.451-1.177,2.629-2.629,2.629c-1.452,0-2.629-1.177-2.629-2.629V44.738c0.004-1.448,1.18-2.621,2.628-2.621
		c1.452,0,2.629,1.177,2.629,2.629h0.001v2.628H131.546z M99.999,5L10,50l89.999,45L190,50L99.999,5z M21.756,50l78.243-39.122
		L178.244,50L99.999,89.123L21.756,50z"/>
</g>
</svg>